# xmcd
#
# Track frame offsets:
#	300
#	15536
#	35818
#	53739
#	70768
#	84891
#	100579
#	120264
#	138943
#	153548
#
# Disc length: 2310 seconds
#
# Revision: 0
# Processed by: cddbd v1.5.2PL0 Copyright (c) Steve Scherf et al.
# Submitted via: EasyCDDAExtractor 10.0.2.1
#
DISCID=7309020a
DTITLE=V3
DYEAR=2006
DGENRE=Gospel
TTITLE0=Let Go
TTITLE1=Love Makes The World Beatiful
TTITLE2=I Need You
TTITLE3=Take Me There
TTITLE4=Irreplaceable
TTITLE5=Close To You
TTITLE6=Have You Ever
TTITLE7=Take The Time
TTITLE8=Let's Take It
TTITLE9=Thank You
EXTD=
EXTT0=
EXTT1=
EXTT2=
EXTT3=
EXTT4=
EXTT5=
EXTT6=
EXTT7=
EXTT8=
EXTT9=
PLAYORDER=
